<?xml version="1.0" encoding="UTF-8" standalone="no"?>
<svg
   enable-background="new 0 0 32 32"
   height="14.782414"
   version="1.1"
   viewBox="0 0 30.085352 14.782414"
   width="30.085352"
   xml:space="preserve"
   id="svg39"
   sodipodi:docname="logo.svg"
   inkscape:version="1.1.1 (3bf5ae0d25, 2021-09-20)"
   xmlns:inkscape="http://www.inkscape.org/namespaces/inkscape"
   xmlns:sodipodi="http://sodipodi.sourceforge.net/DTD/sodipodi-0.dtd"
   xmlns:xlink="http://www.w3.org/1999/xlink"
   xmlns="http://www.w3.org/2000/svg"
   xmlns:svg="http://www.w3.org/2000/svg"><defs
     id="defs43"><linearGradient
       inkscape:collect="always"
       id="linearGradient28603"><stop
         style="stop-color:#00ffcc;stop-opacity:1"
         offset="0"
         id="stop28599" /><stop
         style="stop-color:#ffdd55;stop-opacity:1"
         offset="1"
         id="stop28601" /></linearGradient><rect
       x="30.068878"
       y="-12.116254"
       width="60.369167"
       height="43.408894"
       id="rect15747" /><linearGradient
       inkscape:collect="always"
       xlink:href="#linearGradient28603"
       id="linearGradient28605"
       x1="18.278608"
       y1="8.3248911"
       x2="1.0548469"
       y2="23.140123"
       gradientUnits="userSpaceOnUse" /></defs><sodipodi:namedview
     id="namedview41"
     pagecolor="#ffffff"
     bordercolor="#666666"
     borderopacity="1.0"
     inkscape:pageshadow="2"
     inkscape:pageopacity="0.0"
     inkscape:pagecheckerboard="0"
     showgrid="false"
     inkscape:snap-page="false"
     fit-margin-top="0"
     fit-margin-left="0"
     fit-margin-right="0"
     fit-margin-bottom="0"
     inkscape:zoom="15.158602"
     inkscape:cx="6.102146"
     inkscape:cy="9.5655261"
     inkscape:window-width="1920"
     inkscape:window-height="1016"
     inkscape:window-x="0"
     inkscape:window-y="0"
     inkscape:window-maximized="1"
     inkscape:current-layer="svg39" /><g
     id="g30155"
     transform="translate(-0.9356328,-8.3326028)"><path
       id="path18"
       d="m 17.186383,8.3337794 c -0.111046,0.00523 -0.221875,0.026859 -0.328124,0.068359 L 2.0106026,14.130655 c -0.913,0.366 -1.08821867,0.845641 -1.07421867,1.18164 0.009,0.202001 0.11764057,0.701172 0.93164057,0.951172 l 3.4570309,1.078125 1.205078,3.96875 c 0.031001,0.087 0.051313,0.163516 0.070313,0.228516 0.107,0.379 0.270703,0.748047 0.970703,0.748047 0.569,0 0.855844,-0.278813 1.089844,-0.507813 l 1.6835936,-1.552734 2.638672,2.121094 0.572265,0.46875 c 0.023,0.019 0.047,0.03663 0.07227,0.05078 h 0.002 c 0.005,0.0028 0.0105,0.0052 0.01563,0.0078 0.29325,0.159259 0.57365,0.240235 0.833984,0.240235 0.296,0 1.010235,-0.118609 1.240235,-1.224609 l 2.56635,-12.2753785 c 0.066,-0.316 -0.0138,-0.639672 -0.216797,-0.888672 -0.216,-0.26625 -0.549672,-0.4082812 -0.882813,-0.3925781 z m 0.05859,0.9960941 0.0625,0.082031 -2.564453,12.2734375 c -0.057,0.269 -0.09959,0.572516 -0.558594,0.353516 l -0.05273,-0.04297 -5.2558586,-4.30664 3.8457026,-3.46875 c 0.205,-0.185 0.221156,-0.502032 0.03516,-0.707032 -0.185,-0.205 -0.500078,-0.222156 -0.705078,-0.03516 l -4.2773436,3.859375 c -0.108,0.098 -0.169016,0.236813 -0.166015,0.382813 0.004,0.146 0.072546,0.283 0.185546,0.375 l 1.792969,1.46875 -1.628906,1.503906 c -0.185,0.181 -0.255672,0.215797 -0.388672,0.216797 -10e-4,-0.006 -0.00386,-0.01158 -0.00586,-0.01758 -0.024,-0.084 -0.050985,-0.185438 -0.083985,-0.273438 l -1.273437,-4.195312 c -0.048,-0.158 -0.173078,-0.282032 -0.330078,-0.332032 L 2.1648995,15.308389 c -0.061,-0.019 -0.1094844,-0.03864 -0.1464843,-0.05664 0.07,-0.051 0.184375,-0.119453 0.359375,-0.189454 z m -3.378906,2.6328125 c -0.275,0 -0.5,0.225 -0.5,0.5 0,0.275 0.225,0.5 0.5,0.5 0.275,0 0.5,-0.225 0.5,-0.5 0,-0.276 -0.225,-0.5 -0.5,-0.5 z"
       style="fill:url(#linearGradient28605);fill-opacity:1" /><text
       xml:space="preserve"
       id="text15745"
       style="font-style:normal;font-variant:normal;font-weight:600;font-stretch:normal;font-size:8px;line-height:1.25;font-family:Montserrat;-inkscape-font-specification:'Montserrat Semi-Bold';white-space:pre;shape-inside:url(#rect15747);fill:#005522;fill-opacity:1;stroke:none"
       transform="matrix(0.92449351,0,0,0.92449351,-20.015063,26.033125)"><tspan
         x="30.068359"
         y="-4.7644393"
         id="tspan30249">Flyme</tspan></text></g></svg>
